:FULLY-SPECIFIED
:FORCE-ALL-JOINTS-BE-3DOF
:DEGREES
2242
root -0.73289 13.7945 -16.6432 911.846 -26.0697 168.653
lfemur 11.4551 -0.965875 -15.2529
ltibia 32.7495 -0 0
lfoot -23.6671 36.8751 -9.26434e-05
ltoes -44.5354 0 0
rfemur -72.6357 -23.4773 9.35324
rtibia 73.2224 -0 0
rfoot -6.38839 13.9586 -0.00613784
rtoes 3.06803 -0 0
lowerback 8.88879 1.99369 -13.3354
upperback -3.11253 0.682486 -2.03264
thorax -8.59939 0.904472 5.18751
lowerneck 0.884845 -11.9945 -12.4221
upperneck 5.34147 -16.7438 10.3546
head 3.3595 -8.4128 4.36617
lclavicle -9.05101e-15 -1.69551e-14 -2.63681e-31
lhumerus -69.7432 -17.8005 103.995
lradius 102.237 -0 0
lwrist 60.8739 0 0
lhand -11.6828 61.2513 0.00238937
lfingers 7.12502 -0 0
lthumb 14.8628 -91.5467 -0.0057643
rclavicle -1.50997e-14 -7.73098e-15 -1.32735e-29
rhumerus 49.0948 -9.77468 -58.8024
rradius 17.1108 -0 0
rwrist 34.2654 0 0
rhand -19.93 -42.7608 0.000332678
rfingers 7.12502 0 0
rthumb 6.54242 -72.4427 -2.33211e-05
2243
root -0.738182 13.7923 -16.6567 911.9 -26.0697 168.639
lfemur 11.6292 -0.978541 -15.3178
ltibia 32.6686 -0 0
lfoot -23.6455 36.8658 -0.00015615
ltoes -44.564 0 0
rfemur -72.8162 -23.5425 9.38308
rtibia 73.4258 -0 0
rfoot -6.5159 14.0383 -0.00613784
rtoes 3.1404 -0 0
lowerback 8.81033 1.97232 -13.3602
upperback -3.10084 0.661298 -2.0561
thorax -8.53695 0.889746 5.18074
lowerneck 0.881237 -12.0232 -12.3823
upperneck 5.25579 -16.7757 10.3854
head 3.33741 -8.42669 4.36928
lclavicle -7.64754e-15 -1.64336e-14 -5.65488e-31
lhumerus -69.7386 -17.8315 104.005
lradius 102.19 -0 0
lwrist 60.9244 0 0
lhand -11.6975 61.0697 0.0021069
lfingers 7.12502 -0 0
lthumb 14.8133 -91.4205 -0.00388534
rclavicle -1.03575e-14 -4.32473e-15 -1.29909e-29
rhumerus 49.1016 -9.76756 -58.8302
rradius 17.1124 0 0
rwrist 34.2443 0 0
rhand -19.9075 -42.7429 0.00035815
rfingers 7.12502 -0 0
rthumb 6.54026 -72.4232 -1.61516e-05
2244
root -0.745801 13.7866 -16.6712 911.828 -25.9678 168.714
lfemur 11.7848 -0.989702 -15.376
ltibia 32.5771 -0 0
lfoot -23.619 36.8543 -0.00022952
ltoes -44.5712 0 0
rfemur -72.9505 -23.5908 9.40541
rtibia 73.632 -0 0
rfoot -6.64259 14.1174 -0.00596231
rtoes 3.21713 -0 0
lowerback 8.77237 1.9861 -13.3246
upperback -3.06658 0.693873 -2.06068
thorax -8.48138 0.899008 5.15182
lowerneck 0.817096 -12.0534 -12.2905
upperneck 5.19321 -16.7955 10.3189
head 3.31793 -8.43312 4.33317
lclavicle -5.76561e-15 -1.57343e-14 -9.50134e-31
lhumerus -69.7336 -17.8656 104.016
lradius 102.145 -0 0
lwrist 60.9824 0 0
lhand -11.7112 60.8993 0.00179949
lfingers 7.12502 -0 0
lthumb 14.7732 -91.3186 -0.00228721
rclavicle -5.68325e-15 -9.6733e-16 -1.24365e-29
rhumerus 49.1072 -9.7617 -58.8531
rradius 17.112 -0 0
rwrist 34.237 0 0
rhand -19.8844 -42.7246 0.000377027
rfingers 7.12502 -0 0
rthumb 6.53849 -72.4072 -9.72609e-06
2245
root -0.751427 13.7849 -16.6824 911.821 -25.9564 168.756
lfemur 11.9191 -0.999199 -15.4262
ltibia 32.4761 -0 0
lfoot -23.588 36.8409 -0.000308483
ltoes -44.5923 0 0
rfemur -73.0342 -23.6209 9.41939
rtibia 73.8393 -0 0
rfoot -6.76684 14.195 -0.00562024
rtoes 3.29736 -0 0
lowerback 8.75177 1.98223 -13.2884
upperback -3.05347 0.696837 -2.07223
thorax -8.45378 0.895961 5.11932
lowerneck 0.827318 -12.0863 -12.2726
upperneck 5.09905 -16.8326 10.3406
head 3.29266 -8.45041 4.33738
lclavicle -3.45308e-15 -1.4875e-14 -1.39134e-30
lhumerus -69.7281 -17.9024 104.028
lradius 102.103 -0 0
lwrist 61.0466 0 0
lhand -11.724 60.742 0.00147925
lfingers 7.12502 0 0
lthumb 14.7436 -91.2431 -0.00105706
rclavicle -1.12237e-15 2.30864e-15 -1.16315e-29
rhumerus 49.1114 -9.75729 -58.8703
rradius 17.1107 -0 0
rwrist 34.2338 0 0
rhand -19.8609 -42.7059 0.000388629
rfingers 7.12502 -0 0
rthumb 6.53716 -72.3952 -4.57797e-06
2246
root -0.744571 13.7787 -16.6844 912.087 -26.101 168.657
lfemur 12.0288 -1.00688 -15.4672
ltibia 32.3671 -0 0
lfoot -23.553 36.8258 -0.000388769
ltoes -44.626 0 0
rfemur -73.063 -23.6313 9.42422
rtibia 74.0455 -0 0
rfoot -6.887 14.27 -0.00512935
rtoes 3.38021 -0 0
lowerback 8.71656 1.90999 -13.4454
upperback -3.11912 0.575665 -2.0842
thorax -8.48862 0.848208 5.21284
lowerneck 0.83718 -12.0845 -12.2646
upperneck 4.97123 -16.8213 10.3911
head 3.25526 -8.44342 4.35652
lclavicle -7.57779e-16 -1.38734e-14 -1.8618e-30
lhumerus -69.7224 -17.9414 104.041
lradius 102.062 -0 0
lwrist 61.1156 0 0
lhand -11.7355 60.5995 0.00115926
lfingers 7.12502 -0 0
lthumb 14.7251 -91.1961 -0.000273027
rclavicle 3.2798e-15 5.47062e-15 -1.06072e-29
rhumerus 49.1141 -9.75451 -58.8811
rradius 17.1088 -0 0
rwrist 34.2244 0 0
rhand -19.8371 -42.687 0.000392543
rfingers 7.12502 -0 0
rthumb 6.53632 -72.3876 -1.19883e-06
2247
root -0.749613 13.7742 -16.6923 912.075 -25.9849 168.651
lfemur 12.111 -1.01257 -15.4979
ltibia 32.2511 -0 0
lfoot -23.5147 36.8092 -0.00046628
ltoes -44.6715 0 0
rfemur -73.065 -23.6312 9.42298
rtibia 74.2489 -0 0
rfoot -7.00144 14.3415 -0.00451549
rtoes 3.4648 -0 0
lowerback 8.71517 1.9408 -13.501
upperback -3.10714 0.608715 -2.09635
thorax -8.48289 0.86512 5.22502
lowerneck 0.856757 -12.0951 -12.2693
upperneck 4.88642 -16.8291 10.402
head 3.22892 -8.44713 4.36355
lclavicle 2.27244e-15 -1.27474e-14 -2.33446e-30
lhumerus -69.7164 -17.9822 104.054
lradius 102.025 -0 0
lwrist 61.1879 0 0
lhand -11.7457 60.4739 0.000853235
lfingers 7.12502 -0 0
lthumb 14.7188 -451.18 0
rclavicle 7.47792e-15 8.48604e-15 -9.40402e-30
rhumerus 49.115 -9.75354 -58.8849
rradius 17.1062 -0 0
rwrist 34.2093 0 0
rhand -19.8133 -42.6681 0.000388629
rfingers 7.12502 -0 0
rthumb 6.53603 287.615 0
